<svg width="323" height="350" viewBox="0 0 323 350" fill="none" xmlns="http://www.w3.org/2000/svg">
<path fill-rule="evenodd" clip-rule="evenodd" d="M293.269 4.19263C298.871 4.19263 303.413 8.73395 303.413 14.3359V318.635C303.413 324.237 298.871 328.779 293.269 328.779H252.696C247.094 328.779 242.553 324.237 242.553 318.635V98.3075L168.507 174.253C164.557 178.304 158.127 178.271 154.217 174.179L124.733 143.322C120.888 139.298 120.934 132.86 124.837 128.894L244.578 7.20999C246.583 5.17288 249.219 4.17926 251.84 4.22826C252.122 4.20466 252.408 4.19263 252.696 4.19263H293.269Z" fill="#0051A7"/>
<rect x="19.3998" y="4.19263" width="60.8599" height="324.586" rx="10.1433" fill="#007BFF"/>
<path d="M96.3405 52.9927C78.3404 53.1097 61.0397 62.0225 48.2445 77.7702C35.4493 93.518 28.2075 114.811 28.1124 136.964C28.0173 159.118 35.0766 180.318 47.7373 195.9C60.3981 211.482 77.6231 220.17 95.6232 220.053L95.9009 155.38C91.8373 155.407 87.9486 153.445 85.0904 149.928C82.2321 146.41 80.6385 141.624 80.6599 136.623C80.6814 131.621 82.3163 126.814 85.2049 123.259C88.0935 119.704 91.9992 117.692 96.0628 117.666L96.3405 52.9927Z" fill="white"/>
<path d="M226.6 148.34C244.6 148.457 261.9 157.37 274.696 173.117C287.491 188.865 294.732 210.158 294.828 232.312C294.923 254.465 287.863 275.665 275.203 291.247C262.542 306.829 245.317 315.518 227.317 315.401L227.039 250.728C231.103 250.754 234.991 248.793 237.85 245.275C240.708 241.757 242.302 236.971 242.28 231.97C242.259 226.969 240.624 222.162 237.735 218.606C234.847 215.051 230.941 213.039 226.877 213.013L226.6 148.34Z" fill="white"/>
<rect width="68.9746" height="83.1752" rx="10.1433" transform="matrix(0 -1 -1 0 112.718 314.578)" fill="white"/>
<rect x="92.4317" y="123.884" width="68.9746" height="176.37" rx="10.1433" transform="rotate(-90 92.4317 123.884)" fill="white"/>
<path fill-rule="evenodd" clip-rule="evenodd" d="M97.8314 58.9711C81.1953 59.1913 63.9563 67.4023 52.2054 81.8647C40.2928 96.5262 33.6003 116.411 33.6003 137.146C33.6003 157.88 40.2928 177.765 52.2054 192.427C63.6893 206.561 79.472 214.583 95.6859 215.142C95.9509 215.163 96.2187 215.174 96.489 215.174H97.4633L97.5033 215.174H225.69C229.494 215.174 233.141 216.703 235.831 220.013C238.52 223.323 240.031 227.812 240.031 232.493C240.031 237.174 238.52 241.663 235.831 244.973C233.141 248.283 230.127 249.661 226.323 249.661C226.317 249.661 226.31 249.661 226.303 249.661H43.7438C38.1418 249.661 33.6004 254.202 33.6004 259.804V300.378C33.6004 305.98 38.1418 310.521 43.7438 310.521H225.309H226.22C226.463 310.521 226.704 310.512 226.942 310.496C243.221 309.991 259.08 301.961 270.607 287.774C282.52 273.113 289.212 253.227 289.212 232.493C289.212 211.759 282.52 191.873 270.607 177.212C258.965 162.883 243.268 154.691 226.836 154.326C226.666 154.318 226.495 154.314 226.323 154.314H97.1C93.3046 154.308 89.6659 152.929 86.9818 149.626C84.2924 146.316 82.7816 141.827 82.7816 137.146C82.7816 132.465 84.2924 127.976 86.9818 124.666C89.6711 121.356 94.7144 119.826 98.5177 119.826L254.221 119.826C259.823 119.826 264.364 115.285 264.364 109.683V69.1099C264.364 63.5079 259.823 58.9666 254.221 58.9666H98.5177H98.138C98.0354 58.9666 97.9332 58.9681 97.8314 58.9711Z" fill="#002D5E"/>
<path d="M51.6501 76.0809L90.5086 36.3843L200.209 148.451L168.446 180.899C164.527 184.902 158.174 184.902 154.255 180.899L51.6501 76.0809Z" fill="white"/>
<rect width="62.2282" height="191.45" rx="10.1433" transform="matrix(0.699523 -0.714611 0.699523 0.714611 27.6079 44.469)" fill="#007BFF"/>
<path d="M118.977 12.4354C115.962 9.24757 118.222 4 122.61 4H201.022C205.463 4 207.7 9.35853 204.576 12.5162L168.968 48.5162C168.029 49.4657 166.748 50 165.413 50H156.653C155.279 50 153.965 49.4341 153.02 48.4354L118.977 12.4354Z" fill="#007BFF"/>
</svg>
