<svg width="512" height="512" viewBox="0 0 512 512" fill="none" xmlns="http://www.w3.org/2000/svg">
<rect width="512" height="512" rx="256" fill="black"/>
<path d="M256.005 105.269L279.789 105.269L279.789 50.9059L256.005 27.1223L256.005 105.269Z" fill="#007BFF"/>
<path d="M256.005 105.268L232.221 105.268L232.221 50.9058L256.005 27.1222L256.005 105.268Z" fill="white"/>
<path d="M225.427 105.269L186.354 144.342L186.354 96.7744L225.427 57.7013L225.427 105.269Z" fill="white"/>
<path d="M286.584 105.269L325.657 144.342L325.657 96.7744L286.584 57.7013L286.584 105.269Z" fill="#007BFF"/>
<rect width="49.2661" height="96.911" transform="matrix(0.707107 0.707107 0.707107 -0.707107 188.052 194.181)" fill="white"/>
<rect width="49.2661" height="96.8698" transform="matrix(0.707107 -0.707107 -0.707107 -0.707107 290.301 229.017)" fill="white"/>
<path d="M417.394 154.535L417.394 99.3229L264.499 251.368L292.529 279.399L417.394 154.535Z" fill="white"/>
<path d="M368.127 154.535H417.393V388.973L368.127 418.703V154.535Z" fill="white"/>
<rect x="276.392" y="336.31" width="49.2661" height="107.026" fill="#007BFF"/>
<path d="M186.353 264.959L235.619 314.225V443.336H186.353V264.959Z" fill="#007BFF"/>
<path d="M186.49 443.221L256.142 485.744L325.794 443.221L186.49 443.221Z" fill="#007BFF"/>
<path d="M94.6061 154.534L94.6059 99.3225L325.657 331.213L325.657 336.309L276.391 336.309L94.6061 154.534Z" fill="#007BFF"/>
<path d="M143.882 154.535H94.6162V388.973L143.882 418.703V154.535Z" fill="#007BFF"/>
</svg>
